<?xml version="1.0" encoding="utf-8"?>
<!-- Generator: Adobe Illustrator 27.0.0, SVG Export Plug-In . SVG Version: 6.00 Build 0)  -->
<svg version="1.1" id="Layer_1" xmlns="http://www.w3.org/2000/svg" xmlns:xlink="http://www.w3.org/1999/xlink" x="0px" y="0px"
	 viewBox="0 0 46 45" style="enable-background:new 0 0 46 45;" xml:space="preserve">
<style type="text/css">
	.st0{fill-rule:evenodd;clip-rule:evenodd;}
	.st1{fill:#FFFFFF;}
</style>
<g id="Group">
	<path id="Rectangle-5" class="st0" d="M0,0h46v18.9V45H0V0z"/>
</g>
<g>
	<path class="st1" d="M17.2,34.4c-2,0-3.6-0.5-4.9-1.5c-1.2-1-1.9-2.4-1.9-4.1c0-1.2,0.3-2.3,1-3.2c0.7-1,1.6-1.8,2.8-2.5
		c1.2-0.7,2.7-1.2,4.4-1.5c1.7-0.4,3.6-0.5,5.7-0.5v-5.9c0-0.9-0.3-1.6-0.9-2.1c-0.6-0.5-1.5-0.8-2.5-0.8c-0.9,0-1.6,0.2-2.2,0.5
		c-0.6,0.3-0.9,0.8-0.9,1.3c0,0.2,0.1,0.4,0.2,0.6c0.1,0.2,0.2,0.3,0.4,0.5c0.1,0.2,0.2,0.4,0.4,0.6c0.1,0.2,0.2,0.5,0.2,0.9
		c0,0.9-0.3,1.6-1,2.3c-0.7,0.7-1.5,1-2.5,1c-1,0-1.8-0.3-2.4-1c-0.6-0.7-1-1.5-1-2.4c0-0.8,0.2-1.6,0.8-2.4
		c0.5-0.7,1.2-1.4,2.1-1.9c0.9-0.5,2-1,3.2-1.2c1.2-0.3,2.6-0.5,4-0.5c1.3,0,2.6,0.1,3.7,0.4c1.1,0.2,2.1,0.6,2.9,1.1
		c0.8,0.4,1.5,1,1.9,1.6c0.5,0.6,0.7,1.3,0.7,2.1v14.6c0,0.3,0.1,0.6,0.3,0.8s0.5,0.3,0.9,0.3c0.3,0,0.6-0.1,0.9-0.3
		c0.3-0.2,0.8-0.7,1.3-1.3l1,1.2c-1,1.2-1.9,2-2.9,2.5c-1,0.5-2.1,0.8-3.3,0.8c-1.4,0-2.5-0.3-3.2-0.9s-1.3-1.5-1.5-2.5h-0.2
		c-0.6,0.9-1.5,1.7-2.8,2.4C20.3,34,18.9,34.4,17.2,34.4z M20.5,31.6c1.1,0,2-0.5,2.7-1.4c0.8-0.9,1.1-2.2,1.1-3.8v-4
		c-2.2,0-3.8,0.4-5,1.3c-1.2,0.9-1.7,2.2-1.7,4c0,1.2,0.2,2.1,0.7,2.8C18.9,31.3,19.6,31.6,20.5,31.6z"/>
</g>
</svg>
